<mxfile host="app.diagrams.net" modified="2021-03-12T04:13:06.290Z" agent="5.0 (Windows NT 10.0; Win64; x64) AppleWebKit/537.36 (KHTML, like Gecko) Chrome/88.0.4324.190 Safari/537.36" etag="o2nP0V2yqkgqouwAqNTb" version="14.4.7" type="github">
  <diagram id="CCF14BdAKm4wxbj0LPr0" name="第 1 页">
    <mxGraphModel dx="1209" dy="649" grid="1" gridSize="10" guides="1" tooltips="1" connect="1" arrows="1" fold="1" page="1" pageScale="1" pageWidth="850" pageHeight="1100" math="0" shadow="0">
      <root>
        <mxCell id="0" />
        <mxCell id="1" parent="0" />
        <mxCell id="P4LfsCkp0AAmiIVGXh1K-5" style="edgeStyle=orthogonalEdgeStyle;rounded=0;orthogonalLoop=1;jettySize=auto;html=1;exitX=0;exitY=0.5;exitDx=0;exitDy=0;entryX=0.5;entryY=0;entryDx=0;entryDy=0;strokeWidth=3;endArrow=classicThin;endFill=1;" edge="1" parent="1" source="P4LfsCkp0AAmiIVGXh1K-1" target="P4LfsCkp0AAmiIVGXh1K-2">
          <mxGeometry relative="1" as="geometry" />
        </mxCell>
        <mxCell id="P4LfsCkp0AAmiIVGXh1K-6" style="edgeStyle=orthogonalEdgeStyle;rounded=0;orthogonalLoop=1;jettySize=auto;html=1;exitX=1;exitY=0.5;exitDx=0;exitDy=0;entryX=0.5;entryY=0;entryDx=0;entryDy=0;strokeWidth=3;endArrow=classicThin;endFill=1;" edge="1" parent="1" source="P4LfsCkp0AAmiIVGXh1K-1" target="P4LfsCkp0AAmiIVGXh1K-3">
          <mxGeometry relative="1" as="geometry" />
        </mxCell>
        <mxCell id="P4LfsCkp0AAmiIVGXh1K-1" value="模型设定" style="rounded=1;whiteSpace=wrap;html=1;fillColor=#FFFF99;" vertex="1" parent="1">
          <mxGeometry x="320" y="180" width="120" height="60" as="geometry" />
        </mxCell>
        <mxCell id="P4LfsCkp0AAmiIVGXh1K-7" style="edgeStyle=orthogonalEdgeStyle;rounded=0;orthogonalLoop=1;jettySize=auto;html=1;exitX=0.75;exitY=1;exitDx=0;exitDy=0;entryX=0.25;entryY=1;entryDx=0;entryDy=0;strokeWidth=3;endArrow=classicThin;endFill=1;" edge="1" parent="1" source="P4LfsCkp0AAmiIVGXh1K-2" target="P4LfsCkp0AAmiIVGXh1K-3">
          <mxGeometry relative="1" as="geometry" />
        </mxCell>
        <mxCell id="P4LfsCkp0AAmiIVGXh1K-8" style="edgeStyle=orthogonalEdgeStyle;rounded=0;orthogonalLoop=1;jettySize=auto;html=1;exitX=0.5;exitY=1;exitDx=0;exitDy=0;entryX=0.5;entryY=1;entryDx=0;entryDy=0;strokeWidth=3;endArrow=classicThin;endFill=1;" edge="1" parent="1" source="P4LfsCkp0AAmiIVGXh1K-2" target="P4LfsCkp0AAmiIVGXh1K-3">
          <mxGeometry relative="1" as="geometry">
            <Array as="points">
              <mxPoint x="220" y="380" />
              <mxPoint x="540" y="380" />
            </Array>
          </mxGeometry>
        </mxCell>
        <mxCell id="P4LfsCkp0AAmiIVGXh1K-9" style="edgeStyle=orthogonalEdgeStyle;rounded=0;orthogonalLoop=1;jettySize=auto;html=1;exitX=0.25;exitY=1;exitDx=0;exitDy=0;entryX=0.7;entryY=1.017;entryDx=0;entryDy=0;entryPerimeter=0;strokeWidth=3;endArrow=classicThin;endFill=1;" edge="1" parent="1" source="P4LfsCkp0AAmiIVGXh1K-2" target="P4LfsCkp0AAmiIVGXh1K-3">
          <mxGeometry relative="1" as="geometry">
            <Array as="points">
              <mxPoint x="183" y="400" />
              <mxPoint x="571" y="400" />
            </Array>
          </mxGeometry>
        </mxCell>
        <mxCell id="P4LfsCkp0AAmiIVGXh1K-10" style="edgeStyle=orthogonalEdgeStyle;rounded=0;orthogonalLoop=1;jettySize=auto;html=1;entryX=0.926;entryY=1.028;entryDx=0;entryDy=0;entryPerimeter=0;strokeWidth=3;endArrow=classicThin;endFill=1;" edge="1" parent="1" target="P4LfsCkp0AAmiIVGXh1K-3">
          <mxGeometry relative="1" as="geometry">
            <mxPoint x="160" y="340" as="sourcePoint" />
            <mxPoint x="600" y="330" as="targetPoint" />
            <Array as="points">
              <mxPoint x="160" y="420" />
              <mxPoint x="600" y="420" />
            </Array>
          </mxGeometry>
        </mxCell>
        <mxCell id="P4LfsCkp0AAmiIVGXh1K-2" value="教师模型" style="rounded=1;whiteSpace=wrap;html=1;fillColor=#FFCCCC;" vertex="1" parent="1">
          <mxGeometry x="150" y="280" width="130" height="60" as="geometry" />
        </mxCell>
        <mxCell id="P4LfsCkp0AAmiIVGXh1K-3" value="学生模型" style="rounded=1;whiteSpace=wrap;html=1;fillColor=#CCE5FF;" vertex="1" parent="1">
          <mxGeometry x="480" y="280" width="130" height="60" as="geometry" />
        </mxCell>
        <mxCell id="P4LfsCkp0AAmiIVGXh1K-4" value="" style="shape=flexArrow;endArrow=classic;html=1;exitX=1;exitY=0.5;exitDx=0;exitDy=0;entryX=0;entryY=0.5;entryDx=0;entryDy=0;fillColor=#FFCCCC;gradientColor=#FF9999;gradientDirection=west;" edge="1" parent="1" source="P4LfsCkp0AAmiIVGXh1K-2" target="P4LfsCkp0AAmiIVGXh1K-3">
          <mxGeometry width="50" height="50" relative="1" as="geometry">
            <mxPoint x="280" y="330" as="sourcePoint" />
            <mxPoint x="330" y="280" as="targetPoint" />
          </mxGeometry>
        </mxCell>
        <mxCell id="P4LfsCkp0AAmiIVGXh1K-11" value="知识蒸馏" style="text;html=1;strokeColor=none;fillColor=none;align=center;verticalAlign=middle;whiteSpace=wrap;rounded=0;" vertex="1" parent="1">
          <mxGeometry x="360" y="280" width="50" height="20" as="geometry" />
        </mxCell>
        <mxCell id="P4LfsCkp0AAmiIVGXh1K-12" value="简单结构" style="text;html=1;strokeColor=none;fillColor=none;align=center;verticalAlign=middle;whiteSpace=wrap;rounded=0;" vertex="1" parent="1">
          <mxGeometry x="365" y="340" width="55" height="20" as="geometry" />
        </mxCell>
        <mxCell id="P4LfsCkp0AAmiIVGXh1K-15" value="量化结构" style="text;html=1;strokeColor=none;fillColor=none;align=center;verticalAlign=middle;whiteSpace=wrap;rounded=0;" vertex="1" parent="1">
          <mxGeometry x="365" y="360" width="50" height="20" as="geometry" />
        </mxCell>
        <mxCell id="P4LfsCkp0AAmiIVGXh1K-16" value="相同结构" style="text;html=1;strokeColor=none;fillColor=none;align=center;verticalAlign=middle;whiteSpace=wrap;rounded=0;" vertex="1" parent="1">
          <mxGeometry x="362.5" y="380" width="52.5" height="20" as="geometry" />
        </mxCell>
        <mxCell id="P4LfsCkp0AAmiIVGXh1K-19" value="缩小结构(优化/压缩)" style="text;html=1;strokeColor=none;fillColor=none;align=center;verticalAlign=middle;whiteSpace=wrap;rounded=0;" vertex="1" parent="1">
          <mxGeometry x="327.5" y="400" width="132.5" height="20" as="geometry" />
        </mxCell>
      </root>
    </mxGraphModel>
  </diagram>
</mxfile>
